# xmcd
#
# Track frame offsets: 
#        150
#        12735
#        31822
#        43810
#        58562
#        71697
#        83850
#        99442
#        114512
#        126882
#        147897
#        158952
#        180652
#        196882
#        210165
#        230592
#        248825
#        262547
#        278120
#        292220
#        309715
#
# Disc length: 4346 seconds
#
# Revision: 1
# Processed by: cddbd v1.5.2PL0 Copyright (c) Steve Scherf et al.
# Submitted via: ExactAudioCopy v0.99pb4
#
DISCID=2d10f815
DTITLE=John Duffey - Always In Style: A Collection
DYEAR=2000
DGENRE=Country
TTITLE0=Let Me Be Your Friend
TTITLE1=Long Black Veil
TTITLE2=The Old Hometown
TTITLE3=Tennessee Blues
TTITLE4=Rose Of Old Kentucky
TTITLE5=Walk Through This World With Me
TTITLE6=Philadelphia Lawyer
TTITLE7=Were You There
TTITLE8=Say Won't You Be Mine
TTITLE9=Willie Roy
TTITLE10=I Haven't Got The Right To Love You
TTITLE11=After Midnight
TTITLE12=The Boatman
TTITLE13=They're At Rest Together
TTITLE14=Pictures From Life's Other Side
TTITLE15=Hickory Wind
TTITLE16=She's More To Be Pitied
TTITLE17=Here Today And Gone Tomorrow
TTITLE18=Let Old Mother Nature Have Her Way
TTITLE19=Girl In The Night
TTITLE20=Life Is Like A Mountain Railway
EXTD=
EXTT0=
EXTT1=
EXTT2=
EXTT3=
EXTT4=
EXTT5=
EXTT6=
EXTT7=
EXTT8=
EXTT9=
EXTT10=
EXTT11=
EXTT12=
EXTT13=
EXTT14=
EXTT15=
EXTT16=
EXTT17=
EXTT18=
EXTT19=
EXTT20=
PLAYORDER=
